<mxfile host="Electron" modified="2023-05-29T12:35:01.287Z" agent="Mozilla/5.0 (Windows NT 10.0; Win64; x64) AppleWebKit/537.36 (KHTML, like Gecko) draw.io/21.2.8 Chrome/112.0.5615.165 Electron/24.2.0 Safari/537.36" etag="-4nT3am4TlmzoDoc7O0N" version="21.2.8" type="device">
  <diagram name="Page-1" id="eW0bg7WfZRuWj_yWLDX-">
    <mxGraphModel dx="987" dy="585" grid="1" gridSize="10" guides="1" tooltips="1" connect="1" arrows="1" fold="1" page="1" pageScale="1" pageWidth="850" pageHeight="1100" math="0" shadow="0">
      <root>
        <mxCell id="0" />
        <mxCell id="1" parent="0" />
        <mxCell id="JRjmI1aE77-BqFbRmC0a-8" value="&amp;nbsp;" style="html=1;whiteSpace=wrap;strokeColor=none;fillColor=none;" parent="1" vertex="1">
          <mxGeometry x="280" y="80" width="80" height="120" as="geometry" />
        </mxCell>
        <mxCell id="JRjmI1aE77-BqFbRmC0a-6" value="&lt;b&gt;Старая почта&lt;/b&gt;" style="html=1;whiteSpace=wrap;rounded=1;verticalAlign=top;strokeWidth=2;" parent="1" vertex="1">
          <mxGeometry x="400" y="40" width="200" height="200" as="geometry" />
        </mxCell>
        <mxCell id="JRjmI1aE77-BqFbRmC0a-3" value="&lt;b&gt;Мобильное приложение&lt;/b&gt;" style="html=1;whiteSpace=wrap;rounded=1;verticalAlign=top;strokeWidth=2;" parent="1" vertex="1">
          <mxGeometry x="40" y="70" width="200" height="110" as="geometry" />
        </mxCell>
        <mxCell id="JRjmI1aE77-BqFbRmC0a-1" value="user" style="shape=umlActor;verticalLabelPosition=bottom;verticalAlign=top;html=1;strokeWidth=2;" parent="1" vertex="1">
          <mxGeometry x="305" y="110" width="30" height="60" as="geometry" />
        </mxCell>
        <mxCell id="JRjmI1aE77-BqFbRmC0a-2" value="Заявка на&lt;br&gt;смену электронной почты" style="ellipse;whiteSpace=wrap;html=1;strokeWidth=2;fontStyle=1" parent="1" vertex="1">
          <mxGeometry x="70" y="100" width="140" height="70" as="geometry" />
        </mxCell>
        <mxCell id="JRjmI1aE77-BqFbRmC0a-4" value="Отмена заявки&lt;br&gt;смены электронной почты" style="ellipse;whiteSpace=wrap;html=1;strokeWidth=2;fontStyle=1" parent="1" vertex="1">
          <mxGeometry x="430" y="70" width="140" height="70" as="geometry" />
        </mxCell>
        <mxCell id="JRjmI1aE77-BqFbRmC0a-5" value="Подтверждение&lt;br&gt;смены электронной почты" style="ellipse;whiteSpace=wrap;html=1;strokeWidth=2;fontStyle=1" parent="1" vertex="1">
          <mxGeometry x="430" y="150" width="140" height="70" as="geometry" />
        </mxCell>
        <mxCell id="JRjmI1aE77-BqFbRmC0a-10" style="rounded=0;orthogonalLoop=1;jettySize=auto;html=1;exitX=1;exitY=0.5;exitDx=0;exitDy=0;entryX=0;entryY=0.5;entryDx=0;entryDy=0;strokeWidth=2;" parent="1" source="JRjmI1aE77-BqFbRmC0a-8" target="JRjmI1aE77-BqFbRmC0a-4" edge="1">
          <mxGeometry relative="1" as="geometry" />
        </mxCell>
        <mxCell id="JRjmI1aE77-BqFbRmC0a-11" style="rounded=0;orthogonalLoop=1;jettySize=auto;html=1;exitX=1;exitY=0.5;exitDx=0;exitDy=0;entryX=0;entryY=0.5;entryDx=0;entryDy=0;strokeWidth=2;" parent="1" source="JRjmI1aE77-BqFbRmC0a-8" target="JRjmI1aE77-BqFbRmC0a-5" edge="1">
          <mxGeometry relative="1" as="geometry" />
        </mxCell>
        <mxCell id="JKOrAIhQ_02OU27xedF2-1" style="rounded=0;orthogonalLoop=1;jettySize=auto;html=1;exitX=0;exitY=0.5;exitDx=0;exitDy=0;strokeWidth=2;entryX=1;entryY=0.5;entryDx=0;entryDy=0;" edge="1" parent="1" source="JRjmI1aE77-BqFbRmC0a-8" target="JRjmI1aE77-BqFbRmC0a-2">
          <mxGeometry relative="1" as="geometry" />
        </mxCell>
      </root>
    </mxGraphModel>
  </diagram>
</mxfile>
